<?xml version="1.0" encoding="UTF-8" standalone="no"?>
<svg
   data-name="Layer 1"
   viewBox="0 0 80 100"
   x="0px"
   y="0px"
   version="1.1"
   id="svg2"
   xml:space="preserve"
   width="80"
   height="100"
   xmlns="http://www.w3.org/2000/svg"
   xmlns:svg="http://www.w3.org/2000/svg"
   xmlns:rdf="http://www.w3.org/1999/02/22-rdf-syntax-ns#"
   xmlns:cc="http://creativecommons.org/ns#"
   xmlns:dc="http://purl.org/dc/elements/1.1/"><defs
     id="defs1"><style
       id="style1">.cls-1{fill-rule:evenodd;}</style></defs><title
     id="title1">a</title><g
     id="g2"
     transform="translate(-10.001,0.00211626)"><path
       d="m 56.52015,30.120204 c 0.719075,0 1.302,0.582926 1.302,1.302 v 0 4.6872 c 0,4.170634 -3.380966,7.5516 -7.5516,7.5516 v 0 h -24.4776 c -4.170634,0 -7.5516,-3.380966 -7.5516,-7.5516 v 0 -4.6872 c 0,-0.719074 0.582925,-1.302 1.302,-1.302 0.719074,0 1.302,0.582926 1.302,1.302 v 0 4.6872 c 0,2.732484 2.215116,4.9476 4.9476,4.9476 v 0 h 24.4776 c 2.732484,0 4.9476,-2.215116 4.9476,-4.9476 v 0 -4.6872 c 0,-0.719074 0.582925,-1.302 1.302,-1.302 z M 38.031755,5.9030039 c 0.690312,0 1.255148,0.537224 1.299231,1.216393 l 0.0028,0.08561 4e-6,21.4809171 5.621627,-5.246351 c 0.502827,-0.469305 1.278495,-0.463717 1.774378,-0.0023 l 0.06583,0.06574 c 0.469305,0.502828 0.463717,1.278496 0.0023,1.774378 l -0.06574,0.06584 -7.804161,7.283826 c -0.02347,0.02228 -0.04777,0.04369 -0.07285,0.06419 -0.0066,0.0054 -0.01334,0.01082 -0.02013,0.01615 -0.01542,0.01208 -0.03111,0.02384 -0.04707,0.03524 -0.0111,0.008 -0.0222,0.01567 -0.03339,0.02316 -0.0114,0.0076 -0.02307,0.01509 -0.03487,0.02245 -0.0111,0.007 -0.02223,0.01371 -0.03342,0.02023 -0.01723,0.01 -0.03475,0.01963 -0.0525,0.02891 l -0.02086,0.01072 c -0.01594,0.0079 -0.03208,0.01555 -0.0484,0.02288 -0.01114,0.0051 -0.02246,0.0099 -0.03383,0.01462 -0.01451,0.006 -0.02888,0.01167 -0.04337,0.01708 l -0.03754,0.01333 c -0.01146,0.0039 -0.02287,0.0076 -0.03434,0.01114 -0.01576,0.0048 -0.03161,0.0093 -0.04753,0.01358 -0.04286,0.01148 -0.0865,0.02076 -0.130893,0.02779 -0.01112,0.0017 -0.0221,0.0033 -0.0331,0.0047 l -0.08652,0.0086 -0.08561,0.0028 h -5.21e-4 c -0.06623,-2.8e-5 -0.13258,-0.0051 -0.198269,-0.01521 l -0.06139,-0.01104 c -0.398547,0.08107 -0.829018,-0.02527 -1.148999,-0.32392 l -7.812,-7.2912 c -0.525683,-0.490638 -0.554093,-1.314529 -0.06346,-1.840213 0.490638,-0.525683 1.314529,-0.554093 1.840213,-0.06346 l 6.142414,5.733319 5e-6,-21.9678651 c 0,-0.719074 0.582925,-1.302 1.302,-1.302 z"
       fill="#000000"
       fill-rule="nonzero"
       id="path1-9"
       style="stroke-width:0.999999"
       transform="translate(11.96925,14.318296)" /><path
       class="cls-1"
       d="m 18.922,75.232 c 1.566917,-1.463841 3.633711,-2.274033 5.778,-2.265 H 81.08 V 9.62 C 81.073956,8.3937095 80.079303,7.4021838 78.853,7.4 h -53.83 c -3.224213,-0.119923 -5.944414,2.3773111 -6.1,5.6 v 62.232 z m 16.836,6.625 v 8.589 c 0.357,-0.437 2.528,-3.14 2.739,-3.312 0.511985,-0.41674 1.264436,-0.341674 1.684,0.168 l 2.57,3.144 v -8.589 z m 9.388,6.494 V 93.8 c -0.0062,1.143235 -1.456025,1.630996 -2.152,0.724 l -3.739,-4.575 -3.768,4.611 c -0.714982,0.860636 -2.114777,0.360851 -2.123,-0.758 v 0 -5.451 H 24.7 c -4.373088,0.112936 -8.01987,-3.320065 -8.171,-7.692 V 12.994 C 16.527,8.48 20.479,5 25.023,5 h 53.83 c 2.549957,0.00385 4.616145,2.0700429 4.62,4.62 v 77.534 c 0,0.662742 -0.537258,1.2 -1.2,1.2 z M 43.918,79.462 H 23.4 c -1.703225,-0.110115 -1.703225,2.505115 0,2.395 h 9.962 v 4.1 H 24.7 c -3.10659,0.270214 -5.777734,-2.178685 -5.777734,-5.297 0,-3.118315 2.671144,-5.567214 5.777734,-5.297 H 81.08 V 85.956 H 45.146 v -4.1 H 76.6 c 1.496774,-0.09677 1.496774,-2.298232 0,-2.395 z"
       id="path1" /></g><metadata
     id="metadata2"><rdf:RDF><cc:Work
         rdf:about=""><dc:title>a</dc:title></cc:Work></rdf:RDF></metadata></svg>
